<?xml version="1.0" encoding="utf-8"?>
<!DOCTYPE svg PUBLIC "-//W3C//DTD SVG 20010904//EN" "http://www.w3.org/TR/2001/REC-SVG-20010904/DTD/svg10.dtd">
<svg version="1.0" xmlns="http://www.w3.org/2000/svg" width="200pt" height="200pt" viewBox="0 0 200 200" style="" preserveAspectRatio="xMidYMid meet">
<g fill="#000000FF" stroke="#000000FF">
<path d="M 41.356 38.194 C 20.529 58.847 20.277 59.240 23.606 65.911 C 24.489 67.681 26.289 69.539 27.606 70.040 C 28.923 70.541 30.000 71.396 30.000 71.940 C 30.000 73.448 36.040 80.000 37.429 80.000 C 38.910 80.000 42.850 84.066 44.418 87.213 C 45.045 88.471 46.725 90.059 48.151 90.743 C 51.435 92.318 52.663 93.808 53.533 97.274 C 54.171 99.819 52.979 101.295 38.369 116.038 C 23.828 130.711 21.273 133.726 21.070 136.443 C 21.032 136.962 29.873 146.299 40.717 157.193 C 57.728 174.281 60.852 177.000 63.479 177.000 C 66.079 177.000 68.855 174.665 82.500 161.000 C 91.319 152.168 99.284 145.000 100.278 145.000 C 101.269 145.000 103.830 146.688 105.970 148.750 C 108.110 150.813 110.353 152.950 110.953 153.500 C 111.554 154.050 116.941 159.563 122.924 165.750 C 138.189 181.536 136.334 181.849 158.335 159.786 C 167.776 150.319 176.285 141.431 177.243 140.036 C 181.185 134.302 180.321 132.844 162.261 114.761 L 145.522 98.000 162.261 81.239 C 182.889 60.585 182.706 61.177 171.854 50.129 C 167.923 46.128 163.648 42.160 162.354 41.312 C 161.059 40.464 160.000 39.399 160.000 38.946 C 160.000 37.712 143.859 21.710 141.170 20.277 C 136.340 17.704 134.533 18.898 117.813 35.718 C 108.912 44.673 101.144 52.000 100.553 52.000 C 99.961 52.000 92.062 44.575 83.000 35.500 C 69.252 21.733 66.041 19.000 63.617 19.000 C 61.183 19.000 57.572 22.113 41.356 38.194 M 77.909 46.446 C 86.216 54.814 91.021 60.384 90.634 61.196 C 89.059 64.501 86.797 67.137 77.000 77.080 C 71.225 82.941 65.591 88.018 64.481 88.362 C 62.857 88.866 59.771 86.292 48.731 75.231 L 35.000 61.474 49.219 47.237 C 57.039 39.407 63.691 33.000 64.000 33.000 C 64.310 33.000 70.569 39.051 77.909 46.446 M 152.006 121.235 C 159.153 128.514 165.000 134.921 165.000 135.472 C 165.000 136.797 138.825 163.000 137.500 163.000 C 136.935 163.000 130.244 156.759 122.630 149.130 L 108.786 135.260 122.020 121.630 C 129.768 113.650 136.032 108.000 137.133 108.000 C 138.224 108.000 144.468 113.556 152.006 121.235 M 90.870 92.818 C 95.412 99.196 91.334 106.794 84.000 105.621 C 79.973 104.977 77.000 101.877 77.000 98.323 C 77.000 93.179 80.309 90.202 86.182 90.063 C 88.026 90.020 89.491 90.880 90.870 92.818 M 106.686 77.174 C 109.860 80.157 109.690 84.279 106.260 87.460 C 100.454 92.843 92.126 88.776 93.361 81.161 C 94.139 76.368 95.682 75.000 100.308 75.000 C 103.103 75.000 105.093 75.678 106.686 77.174 M 121.365 92.073 C 127.303 96.743 122.894 107.029 115.581 105.566 C 111.099 104.670 109.000 102.231 109.000 97.918 C 109.000 93.688 112.493 90.000 116.500 90.000 C 117.727 90.000 119.916 90.933 121.365 92.073 M 106.411 109.077 C 109.571 112.832 109.692 115.635 106.826 118.686 C 105.207 120.409 103.553 121.000 100.351 121.000 C 96.552 121.000 95.864 120.638 94.444 117.892 C 89.885 109.076 100.087 101.561 106.411 109.077 "/></g>
</svg>
