<?xml version="1.0" encoding="utf-8"?>
<!DOCTYPE svg PUBLIC "-//W3C//DTD SVG 20010904//EN" "http://www.w3.org/TR/2001/REC-SVG-20010904/DTD/svg10.dtd">
<svg version="1.0" xmlns="http://www.w3.org/2000/svg" width="192pt" height="192pt" viewBox="0 0 192 192" style="" preserveAspectRatio="xMidYMid meet">
<g fill="#000000" stroke="#000000">
<path d="M 29.635 30.073 C 26.453 32.575 26.154 36.733 28.910 40.139 L 30.821 42.500 59.410 42.820 C 86.225 43.119 88.000 43.252 88.000 44.951 C 88.000 46.279 86.732 47.080 83.250 47.951 C 60.914 53.538 45.874 72.839 45.809 96.000 C 45.745 118.444 60.343 137.811 81.678 143.586 L 88.000 145.297 88.000 151.214 C 88.000 159.916 89.962 162.957 95.595 162.985 C 100.416 163.009 102.376 160.041 102.828 152.032 L 103.214 145.211 109.744 143.068 C 131.213 136.020 144.128 118.374 144.191 96.000 C 144.253 74.037 130.469 55.172 109.750 48.861 C 104.621 47.299 103.000 46.365 103.000 44.973 C 103.000 43.248 104.642 43.122 131.090 42.821 L 159.179 42.500 161.090 40.139 C 163.846 36.733 163.547 32.575 160.365 30.073 C 157.763 28.026 156.948 28.000 95.000 28.000 C 33.052 28.000 32.237 28.026 29.635 30.073 M 88.000 96.500 C 88.000 122.547 87.741 129.000 86.696 129.000 C 83.754 129.000 74.905 123.620 71.154 119.551 C 64.074 111.870 62.527 107.834 62.513 97.000 C 62.502 88.834 62.865 86.727 65.097 82.000 C 68.066 75.712 73.948 69.613 80.200 66.341 C 88.551 61.970 88.000 59.838 88.000 96.500 M 110.500 66.378 C 116.914 69.402 122.315 74.906 125.766 81.932 C 128.130 86.746 128.500 88.718 128.500 96.500 C 128.500 104.843 128.251 105.959 125.092 111.785 C 123.217 115.242 120.163 119.405 118.305 121.037 C 114.921 124.009 105.975 129.000 104.033 129.000 C 103.343 129.000 103.000 118.197 103.000 96.500 C 103.000 71.161 103.275 64.002 104.250 64.010 C 104.938 64.015 107.750 65.081 110.500 66.378 "/></g>
</svg>
